<svg id="my-svg" width="100%" xmlns="http://www.w3.org/2000/svg" xmlns:xlink="http://www.w3.org/1999/xlink" class="classDiagram" style="max-width: 285.953px; background-color: white;" viewBox="0 0 285.953125 452" role="graphics-document document" aria-roledescription="class"><style>#my-svg{font-family:"trebuchet ms",verdana,arial,sans-serif;font-size:16px;fill:#333;}@keyframes edge-animation-frame{from{stroke-dashoffset:0;}}@keyframes dash{to{stroke-dashoffset:0;}}#my-svg .edge-animation-slow{stroke-dasharray:9,5!important;stroke-dashoffset:900;animation:dash 50s linear infinite;stroke-linecap:round;}#my-svg .edge-animation-fast{stroke-dasharray:9,5!important;stroke-dashoffset:900;animation:dash 20s linear infinite;stroke-linecap:round;}#my-svg .error-icon{fill:#552222;}#my-svg .error-text{fill:#552222;stroke:#552222;}#my-svg .edge-thickness-normal{stroke-width:1px;}#my-svg .edge-thickness-thick{stroke-width:3.5px;}#my-svg .edge-pattern-solid{stroke-dasharray:0;}#my-svg .edge-thickness-invisible{stroke-width:0;fill:none;}#my-svg .edge-pattern-dashed{stroke-dasharray:3;}#my-svg .edge-pattern-dotted{stroke-dasharray:2;}#my-svg .marker{fill:#333333;stroke:#333333;}#my-svg .marker.cross{stroke:#333333;}#my-svg svg{font-family:"trebuchet ms",verdana,arial,sans-serif;font-size:16px;}#my-svg p{margin:0;}#my-svg g.classGroup text{fill:#9370DB;stroke:none;font-family:"trebuchet ms",verdana,arial,sans-serif;font-size:10px;}#my-svg g.classGroup text .title{font-weight:bolder;}#my-svg .nodeLabel,#my-svg .edgeLabel{color:#131300;}#my-svg .edgeLabel .label rect{fill:#ECECFF;}#my-svg .label text{fill:#131300;}#my-svg .labelBkg{background:#ECECFF;}#my-svg .edgeLabel .label span{background:#ECECFF;}#my-svg .classTitle{font-weight:bolder;}#my-svg .node rect,#my-svg .node circle,#my-svg .node ellipse,#my-svg .node polygon,#my-svg .node path{fill:#ECECFF;stroke:#9370DB;stroke-width:1px;}#my-svg .divider{stroke:#9370DB;stroke-width:1;}#my-svg g.clickable{cursor:pointer;}#my-svg g.classGroup rect{fill:#ECECFF;stroke:#9370DB;}#my-svg g.classGroup line{stroke:#9370DB;stroke-width:1;}#my-svg .classLabel .box{stroke:none;stroke-width:0;fill:#ECECFF;opacity:0.5;}#my-svg .classLabel .label{fill:#9370DB;font-size:10px;}#my-svg .relation{stroke:#333333;stroke-width:1;fill:none;}#my-svg .dashed-line{stroke-dasharray:3;}#my-svg .dotted-line{stroke-dasharray:1 2;}#my-svg #compositionStart,#my-svg .composition{fill:#333333!important;stroke:#333333!important;stroke-width:1;}#my-svg #compositionEnd,#my-svg .composition{fill:#333333!important;stroke:#333333!important;stroke-width:1;}#my-svg #dependencyStart,#my-svg .dependency{fill:#333333!important;stroke:#333333!important;stroke-width:1;}#my-svg #dependencyStart,#my-svg .dependency{fill:#333333!important;stroke:#333333!important;stroke-width:1;}#my-svg #extensionStart,#my-svg .extension{fill:transparent!important;stroke:#333333!important;stroke-width:1;}#my-svg #extensionEnd,#my-svg .extension{fill:transparent!important;stroke:#333333!important;stroke-width:1;}#my-svg #aggregationStart,#my-svg .aggregation{fill:transparent!important;stroke:#333333!important;stroke-width:1;}#my-svg #aggregationEnd,#my-svg .aggregation{fill:transparent!important;stroke:#333333!important;stroke-width:1;}#my-svg #lollipopStart,#my-svg .lollipop{fill:#ECECFF!important;stroke:#333333!important;stroke-width:1;}#my-svg #lollipopEnd,#my-svg .lollipop{fill:#ECECFF!important;stroke:#333333!important;stroke-width:1;}#my-svg .edgeTerminals{font-size:11px;line-height:initial;}#my-svg .classTitleText{text-anchor:middle;font-size:18px;fill:#333;}#my-svg .label-icon{display:inline-block;height:1em;overflow:visible;vertical-align:-0.125em;}#my-svg .node .label-icon path{fill:currentColor;stroke:revert;stroke-width:revert;}#my-svg :root{--mermaid-font-family:"trebuchet ms",verdana,arial,sans-serif;}</style><g><defs><marker id="my-svg_class-aggregationStart" class="marker aggregation class" refX="18" refY="7" markerWidth="190" markerHeight="240" orient="auto"><path d="M 18,7 L9,13 L1,7 L9,1 Z"/></marker></defs><defs><marker id="my-svg_class-aggregationEnd" class="marker aggregation class" refX="1" refY="7" markerWidth="20" markerHeight="28" orient="auto"><path d="M 18,7 L9,13 L1,7 L9,1 Z"/></marker></defs><defs><marker id="my-svg_class-extensionStart" class="marker extension class" refX="18" refY="7" markerWidth="190" markerHeight="240" orient="auto"><path d="M 1,7 L18,13 V 1 Z"/></marker></defs><defs><marker id="my-svg_class-extensionEnd" class="marker extension class" refX="1" refY="7" markerWidth="20" markerHeight="28" orient="auto"><path d="M 1,1 V 13 L18,7 Z"/></marker></defs><defs><marker id="my-svg_class-compositionStart" class="marker composition class" refX="18" refY="7" markerWidth="190" markerHeight="240" orient="auto"><path d="M 18,7 L9,13 L1,7 L9,1 Z"/></marker></defs><defs><marker id="my-svg_class-compositionEnd" class="marker composition class" refX="1" refY="7" markerWidth="20" markerHeight="28" orient="auto"><path d="M 18,7 L9,13 L1,7 L9,1 Z"/></marker></defs><defs><marker id="my-svg_class-dependencyStart" class="marker dependency class" refX="6" refY="7" markerWidth="190" markerHeight="240" orient="auto"><path d="M 5,7 L9,13 L1,7 L9,1 Z"/></marker></defs><defs><marker id="my-svg_class-dependencyEnd" class="marker dependency class" refX="13" refY="7" markerWidth="20" markerHeight="28" orient="auto"><path d="M 18,7 L9,13 L14,7 L9,1 Z"/></marker></defs><defs><marker id="my-svg_class-lollipopStart" class="marker lollipop class" refX="13" refY="7" markerWidth="190" markerHeight="240" orient="auto"><circle stroke="black" fill="transparent" cx="7" cy="7" r="6"/></marker></defs><defs><marker id="my-svg_class-lollipopEnd" class="marker lollipop class" refX="1" refY="7" markerWidth="190" markerHeight="240" orient="auto"><circle stroke="black" fill="transparent" cx="7" cy="7" r="6"/></marker></defs><g class="root"><g class="clusters"/><g class="edgePaths"><path d="M142.977,109.25L142.977,110.542C142.977,111.833,142.977,114.417,142.977,119.875C142.977,125.333,142.977,133.667,142.977,137.833L142.977,142" id="id_Entity_Order_1" class="edge-thickness-normal edge-pattern-solid relation" style=";;;" data-edge="true" data-et="edge" data-id="id_Entity_Order_1" data-points="W3sieCI6MTQyLjk3NjU2MjUsInkiOjkyfSx7IngiOjE0Mi45NzY1NjI1LCJ5IjoxMTd9LHsieCI6MTQyLjk3NjU2MjUsInkiOjE0Mn1d" marker-start="url(#my-svg_class-extensionStart)"/><path d="M84.038,300.242L81.445,304.035C78.853,307.828,73.669,315.414,71.077,325.374C68.484,335.333,68.484,347.667,68.484,353.833L68.484,360" id="id_Order_LineItem_2" class="edge-thickness-normal edge-pattern-solid relation" style=";;;" data-edge="true" data-et="edge" data-id="id_Order_LineItem_2" data-points="W3sieCI6OTMuNzcwNzEzODc2MTQ2NzksInkiOjI4Nn0seyJ4Ijo2OC40ODQzNzUsInkiOjMyM30seyJ4Ijo2OC40ODQzNzUsInkiOjM2MH1d" marker-start="url(#my-svg_class-compositionStart)"/><path d="M192.182,286L196.397,292.167C200.611,298.333,209.04,310.667,213.254,322C217.469,333.333,217.469,343.667,217.469,348.833L217.469,354" id="id_Order_Customer_3" class="edge-thickness-normal edge-pattern-solid relation" style=";;;" data-edge="true" data-et="edge" data-id="id_Order_Customer_3" data-points="W3sieCI6MTkyLjE4MjQxMTEyMzg1MzIzLCJ5IjoyODZ9LHsieCI6MjE3LjQ2ODc1LCJ5IjozMjN9LHsieCI6MjE3LjQ2ODc1LCJ5IjozNjB9XQ==" marker-end="url(#my-svg_class-dependencyEnd)"/></g><g class="edgeLabels"><g class="edgeLabel"><g class="label" data-id="id_Entity_Order_1" transform="translate(0, 0)"><foreignObject width="0" height="0"><div xmlns="http://www.w3.org/1999/xhtml" class="labelBkg" style="display: table-cell; white-space: nowrap; line-height: 1.5; max-width: 200px; text-align: center;"><span class="edgeLabel"></span></div></foreignObject></g></g><g class="edgeLabel"><g class="label" data-id="id_Order_LineItem_2" transform="translate(0, 0)"><foreignObject width="0" height="0"><div xmlns="http://www.w3.org/1999/xhtml" class="labelBkg" style="display: table-cell; white-space: nowrap; line-height: 1.5; max-width: 200px; text-align: center;"><span class="edgeLabel"></span></div></foreignObject></g></g><g class="edgeLabel" transform="translate(217.46875, 323)"><g class="label" data-id="id_Order_Customer_3" transform="translate(-35.671875, -12)"><foreignObject width="71.34375" height="24"><div xmlns="http://www.w3.org/1999/xhtml" class="labelBkg" style="display: table-cell; white-space: nowrap; line-height: 1.5; max-width: 200px; text-align: center;"><span class="edgeLabel"><p>placed by</p></span></div></foreignObject></g></g></g><g class="nodes"><g class="node default" id="classId-Order-0" transform="translate(142.9765625, 214)"><g class="basic label-container"><path d="M-134.9765625 -72 L134.9765625 -72 L134.9765625 72 L-134.9765625 72" stroke="none" stroke-width="0" fill="#ECECFF" style=""/><path d="M-134.9765625 -72 C-42.577329845327824 -72, 49.82190280934435 -72, 134.9765625 -72 M-134.9765625 -72 C-35.279251576874714 -72, 64.41805934625057 -72, 134.9765625 -72 M134.9765625 -72 C134.9765625 -25.191442431652618, 134.9765625 21.617115136694764, 134.9765625 72 M134.9765625 -72 C134.9765625 -21.904987688741343, 134.9765625 28.190024622517313, 134.9765625 72 M134.9765625 72 C60.89589596007302 72, -13.18477057985396 72, -134.9765625 72 M134.9765625 72 C33.03703299993893 72, -68.90249650012214 72, -134.9765625 72 M-134.9765625 72 C-134.9765625 35.60975050004154, -134.9765625 -0.7804989999169152, -134.9765625 -72 M-134.9765625 72 C-134.9765625 26.85622234531099, -134.9765625 -18.28755530937802, -134.9765625 -72" stroke="#9370DB" stroke-width="1.3" fill="none" stroke-dasharray="0 0" style=""/></g><g class="annotation-group text" transform="translate(0, -48)"/><g class="label-group text" transform="translate(-23.15625, -48)"><g class="label" style="font-weight: bolder" transform="translate(0,-12)"><foreignObject width="46.3125" height="24"><div xmlns="http://www.w3.org/1999/xhtml" style="display: table-cell; white-space: nowrap; line-height: 1.5; max-width: 95px; text-align: center;"><span class="nodeLabel markdown-node-label" style=""><p>Order</p></span></div></foreignObject></g></g><g class="members-group text" transform="translate(-122.9765625, 0)"><g class="label" style="" transform="translate(0,-12)"><foreignObject width="72.3125" height="24"><div xmlns="http://www.w3.org/1999/xhtml" style="display: table-cell; white-space: nowrap; line-height: 1.5; max-width: 129px; text-align: center;"><span class="nodeLabel markdown-node-label" style=""><p>+String id</p></span></div></foreignObject></g></g><g class="methods-group text" transform="translate(-122.9765625, 48)"><g class="label" style="" transform="translate(0,-12)"><foreignObject width="222.796875" height="24"><div xmlns="http://www.w3.org/1999/xhtml" style="display: table-cell; white-space: nowrap; line-height: 1.5; max-width: 281px; text-align: center;"><span class="nodeLabel markdown-node-label" style=""><p>+submit(String coupon) : bool</p></span></div></foreignObject></g></g><g class="divider" style=""><path d="M-134.9765625 -24 C-59.75388977002913 -24, 15.468782959941734 -24, 134.9765625 -24 M-134.9765625 -24 C-73.2305558857228 -24, -11.484549271445587 -24, 134.9765625 -24" stroke="#9370DB" stroke-width="1.3" fill="none" stroke-dasharray="0 0" style=""/></g><g class="divider" style=""><path d="M-134.9765625 24 C-33.44995228060196 24, 68.07665793879607 24, 134.9765625 24 M-134.9765625 24 C-75.31682690937569 24, -15.657091318751398 24, 134.9765625 24" stroke="#9370DB" stroke-width="1.3" fill="none" stroke-dasharray="0 0" style=""/></g></g><g class="node default" id="classId-Entity-1" transform="translate(142.9765625, 50)"><g class="basic label-container"><path d="M-35.5859375 -42 L35.5859375 -42 L35.5859375 42 L-35.5859375 42" stroke="none" stroke-width="0" fill="#ECECFF" style=""/><path d="M-35.5859375 -42 C-9.225958661841855 -42, 17.13402017631629 -42, 35.5859375 -42 M-35.5859375 -42 C-20.979268401141617 -42, -6.372599302283234 -42, 35.5859375 -42 M35.5859375 -42 C35.5859375 -14.002580799350369, 35.5859375 13.994838401299262, 35.5859375 42 M35.5859375 -42 C35.5859375 -19.09045145547067, 35.5859375 3.8190970890586584, 35.5859375 42 M35.5859375 42 C16.14234003260674 42, -3.301257434786521 42, -35.5859375 42 M35.5859375 42 C9.794593596333904 42, -15.996750307332192 42, -35.5859375 42 M-35.5859375 42 C-35.5859375 12.558092263338974, -35.5859375 -16.883815473322052, -35.5859375 -42 M-35.5859375 42 C-35.5859375 16.496800827201383, -35.5859375 -9.006398345597233, -35.5859375 -42" stroke="#9370DB" stroke-width="1.3" fill="none" stroke-dasharray="0 0" style=""/></g><g class="annotation-group text" transform="translate(0, -18)"/><g class="label-group text" transform="translate(-23.5859375, -18)"><g class="label" style="font-weight: bolder" transform="translate(0,-12)"><foreignObject width="47.171875" height="24"><div xmlns="http://www.w3.org/1999/xhtml" style="display: table-cell; white-space: nowrap; line-height: 1.5; max-width: 93px; text-align: center;"><span class="nodeLabel markdown-node-label" style=""><p>Entity</p></span></div></foreignObject></g></g><g class="members-group text" transform="translate(-23.5859375, 30)"/><g class="methods-group text" transform="translate(-23.5859375, 60)"/><g class="divider" style=""><path d="M-35.5859375 6 C-18.501789846319063 6, -1.4176421926381266 6, 35.5859375 6 M-35.5859375 6 C-17.66821422747912 6, 0.24950904504176208 6, 35.5859375 6" stroke="#9370DB" stroke-width="1.3" fill="none" stroke-dasharray="0 0" style=""/></g><g class="divider" style=""><path d="M-35.5859375 24 C-7.752104211951782 24, 20.081729076096437 24, 35.5859375 24 M-35.5859375 24 C-10.077142828835495 24, 15.43165184232901 24, 35.5859375 24" stroke="#9370DB" stroke-width="1.3" fill="none" stroke-dasharray="0 0" style=""/></g></g><g class="node default" id="classId-LineItem-2" transform="translate(68.484375, 402)"><g class="basic label-container"><path d="M-48.0078125 -42 L48.0078125 -42 L48.0078125 42 L-48.0078125 42" stroke="none" stroke-width="0" fill="#ECECFF" style=""/><path d="M-48.0078125 -42 C-25.840713284480508 -42, -3.6736140689610153 -42, 48.0078125 -42 M-48.0078125 -42 C-12.607857628899936 -42, 22.79209724220013 -42, 48.0078125 -42 M48.0078125 -42 C48.0078125 -17.306181396435875, 48.0078125 7.38763720712825, 48.0078125 42 M48.0078125 -42 C48.0078125 -16.601622280378297, 48.0078125 8.796755439243405, 48.0078125 42 M48.0078125 42 C27.500479481450878 42, 6.9931464629017555 42, -48.0078125 42 M48.0078125 42 C15.761921002814404 42, -16.483970494371192 42, -48.0078125 42 M-48.0078125 42 C-48.0078125 24.560624061668182, -48.0078125 7.121248123336365, -48.0078125 -42 M-48.0078125 42 C-48.0078125 18.15626486330006, -48.0078125 -5.687470273399882, -48.0078125 -42" stroke="#9370DB" stroke-width="1.3" fill="none" stroke-dasharray="0 0" style=""/></g><g class="annotation-group text" transform="translate(0, -18)"/><g class="label-group text" transform="translate(-36.0078125, -18)"><g class="label" style="font-weight: bolder" transform="translate(0,-12)"><foreignObject width="72.015625" height="24"><div xmlns="http://www.w3.org/1999/xhtml" style="display: table-cell; white-space: nowrap; line-height: 1.5; max-width: 117px; text-align: center;"><span class="nodeLabel markdown-node-label" style=""><p>LineItem</p></span></div></foreignObject></g></g><g class="members-group text" transform="translate(-36.0078125, 30)"/><g class="methods-group text" transform="translate(-36.0078125, 60)"/><g class="divider" style=""><path d="M-48.0078125 6 C-28.584747931170376 6, -9.161683362340753 6, 48.0078125 6 M-48.0078125 6 C-15.707362982224495 6, 16.59308653555101 6, 48.0078125 6" stroke="#9370DB" stroke-width="1.3" fill="none" stroke-dasharray="0 0" style=""/></g><g class="divider" style=""><path d="M-48.0078125 24 C-20.313120982523994 24, 7.3815705349520115 24, 48.0078125 24 M-48.0078125 24 C-25.690635709392588 24, -3.3734589187851753 24, 48.0078125 24" stroke="#9370DB" stroke-width="1.3" fill="none" stroke-dasharray="0 0" style=""/></g></g><g class="node default" id="classId-Customer-3" transform="translate(217.46875, 402)"><g class="basic label-container"><path d="M-50.9765625 -42 L50.9765625 -42 L50.9765625 42 L-50.9765625 42" stroke="none" stroke-width="0" fill="#ECECFF" style=""/><path d="M-50.9765625 -42 C-20.940677364792776 -42, 9.095207770414447 -42, 50.9765625 -42 M-50.9765625 -42 C-27.93885140975785 -42, -4.901140319515697 -42, 50.9765625 -42 M50.9765625 -42 C50.9765625 -20.376167402793243, 50.9765625 1.2476651944135142, 50.9765625 42 M50.9765625 -42 C50.9765625 -11.924239885350438, 50.9765625 18.151520229299123, 50.9765625 42 M50.9765625 42 C14.265051895036756 42, -22.44645870992649 42, -50.9765625 42 M50.9765625 42 C12.003392935769668 42, -26.969776628460664 42, -50.9765625 42 M-50.9765625 42 C-50.9765625 17.03043756067634, -50.9765625 -7.93912487864732, -50.9765625 -42 M-50.9765625 42 C-50.9765625 10.749384360737938, -50.9765625 -20.501231278524124, -50.9765625 -42" stroke="#9370DB" stroke-width="1.3" fill="none" stroke-dasharray="0 0" style=""/></g><g class="annotation-group text" transform="translate(0, -18)"/><g class="label-group text" transform="translate(-38.9765625, -18)"><g class="label" style="font-weight: bolder" transform="translate(0,-12)"><foreignObject width="77.953125" height="24"><div xmlns="http://www.w3.org/1999/xhtml" style="display: table-cell; white-space: nowrap; line-height: 1.5; max-width: 124px; text-align: center;"><span class="nodeLabel markdown-node-label" style=""><p>Customer</p></span></div></foreignObject></g></g><g class="members-group text" transform="translate(-38.9765625, 30)"/><g class="methods-group text" transform="translate(-38.9765625, 60)"/><g class="divider" style=""><path d="M-50.9765625 6 C-12.752538893270291 6, 25.471484713459418 6, 50.9765625 6 M-50.9765625 6 C-20.497060033306365 6, 9.98244243338727 6, 50.9765625 6" stroke="#9370DB" stroke-width="1.3" fill="none" stroke-dasharray="0 0" style=""/></g><g class="divider" style=""><path d="M-50.9765625 24 C-18.414066162417036 24, 14.148430175165927 24, 50.9765625 24 M-50.9765625 24 C-10.517746307978818 24, 29.941069884042363 24, 50.9765625 24" stroke="#9370DB" stroke-width="1.3" fill="none" stroke-dasharray="0 0" style=""/></g></g></g></g></g></svg>